<?xml version="1.0" encoding="utf-8"?>
<!-- Generator: Adobe Illustrator 16.0.0, SVG Export Plug-In . SVG Version: 6.00 Build 0)  -->
<!DOCTYPE svg PUBLIC "-//W3C//DTD SVG 1.1//EN" "http://www.w3.org/Graphics/SVG/1.1/DTD/svg11.dtd">
<svg version="1.1" id="Layer_1" xmlns="http://www.w3.org/2000/svg" xmlns:xlink="http://www.w3.org/1999/xlink" x="0px" y="0px"
	 width="367.926px" height="407.438px" viewBox="0 0 367.926 407.438" enable-background="new 0 0 367.926 407.438"
	 xml:space="preserve">
<g>
	<g>
		<path fill="#EBCAA1" d="M169.68,258.604c-88.621-0.156-90.938-67.008-91.311-86.084c-0.246-12.635,83.81-65.406,83.81-65.406
			s91.977,46.314,91.578,60.001C253.229,185.249,238.094,258.726,169.68,258.604z"/>
	</g>
	<g>
		<g>
			<g>
				<path fill="#231F20" d="M235.806,178.234c0,9.389-7.611,17-17,17l0,0c-9.39,0-17-7.611-17-17v-0.268c0-9.389,7.61-17,17-17l0,0
					c9.389,0,17,7.611,17,17V178.234z"/>
			</g>
		</g>
		<g>
			<g>
				<path fill="#231F20" d="M129.745,178.234c0,9.389-7.612,17-17,17l0,0c-9.389,0-17-7.611-17-17v-0.268c0-9.389,7.611-17,17-17
					l0,0c9.388,0,17,7.611,17,17V178.234z"/>
			</g>
		</g>
		<g>
			<g>
				<path fill="#231F20" d="M175.292,225.552h-23.76v-35.194c0-2.762,2.238-5,5-5s5,2.238,5,5v25.194h13.76c2.762,0,5,2.238,5,5
					S178.054,225.552,175.292,225.552z"/>
			</g>
		</g>
		<g>
			<g>
				<path fill="#231F20" d="M163.002,246.612c-10.962,0-16.803-5.289-17.156-5.619c-2.017-1.887-2.123-5.051-0.237-7.068
					c1.869-1.996,4.991-2.119,7.01-0.289c0.456,0.389,8.605,7.023,25.321-0.822c2.498-1.17,5.478-0.098,6.65,2.402
					s0.098,5.479-2.402,6.65C174.651,245.403,168.241,246.612,163.002,246.612z"/>
			</g>
		</g>
		<g>
			<path fill="#231F20" d="M323.929,272.515c-11.515-20.627-36.192-28.742-60.854-28.686c0,0,24.887-52.431,21.446-101.853
				S234.115,39.913,160.265,39.567c-73.851-0.345-115.44,66.19-115.646,112.589c-0.165,37.258,14.846,82.849,20.768,99.369
				c25.18,21.287,56.774,32.076,94.042,32.076c2.762,0,5,2.238,5,5s-2.238,5-5,5c-45.745,0-77.355-15.986-97.595-32.084
				c-10.21,6.971-29.58,23.693-24.388,47.611c5.223,24.057,72.619,49.855,140.8,40.383c15.266-4.635,32.024-12.183,50.11-23.816
				c32.47-20.884,53.969-45.273,54.182-45.518c1.818-2.078,4.976-2.291,7.055-0.473c2.079,1.816,2.292,4.973,0.476,7.053
				c-0.807,0.922-18.139,20.601-45.788,40.229c0.095-0.057,0.19-0.108,0.284-0.165l0.86,2.904c0,0,59.891,51.083,76.773,38.623
				C339.081,355.89,335.443,293.142,323.929,272.515z M170.553,255.124c-84.526-0.148-86.735-63.912-87.091-82.107
				c-0.235-12.051,79.937-62.384,79.937-62.384s87.727,44.175,87.347,57.229C250.242,185.158,235.806,255.239,170.553,255.124z"/>
		</g>
	</g>
</g>
</svg>
